<?xml version="1.0" encoding="UTF-8"?>
<svg id="Layer_1" data-name="Layer 1" xmlns="http://www.w3.org/2000/svg" viewBox="0 0 494.39 397.78">
  <defs>
    <style>
      .cls-1 {
        letter-spacing: -.04em;
      }

      .cls-2, .cls-3 {
        fill: #fff;
      }

      .cls-4 {
        letter-spacing: -.02em;
      }

      .cls-5 {
        letter-spacing: -.02em;
      }

      .cls-6 {
        letter-spacing: 0em;
      }

      .cls-7 {
        letter-spacing: -.02em;
      }

      .cls-8 {
        letter-spacing: 0em;
      }

      .cls-9 {
        letter-spacing: 0em;
      }

      .cls-3 {
        font-family: HelveticaNeue-Bold, 'Helvetica Neue';
        font-size: 91.85px;
      }

      .cls-10 {
        letter-spacing: -.03em;
      }

      .cls-11 {
        letter-spacing: -.02em;
      }
    </style>
  </defs>
  <text class="cls-3" transform="translate(16.82 355.02)"><tspan class="cls-5" x="0" y="0">m</tspan><tspan class="cls-6" x="81.56" y="0">y</tspan><tspan class="cls-8" x="129.13" y="0">r</tspan><tspan class="cls-7" x="164.22" y="0">s</tspan><tspan class="cls-4" x="212.07" y="0">p</tspan><tspan class="cls-1" x="265.89" y="0">o</tspan><tspan class="cls-10" x="318.24" y="0">v</tspan><tspan class="cls-11" x="363.06" y="0">e</tspan><tspan class="cls-9" x="414.22" y="0">n</tspan></text>
  <path class="cls-2" d="M383.87,229.82c1.88-1.88,2.12-4.39-1.04-5.62-1.05-.41-2.42-.43-4.14-.43s-7.68-1.18-7.68-5.79c0-2.45,1.06-4.39-.1-7.03-2.72-6.15-20.31-7.33-40.92-8.64-19.63-1.26-28.76-17.14-28.76-40.77,0-28.81,8.87-53.15,22.26-63.37,8.5-6.49,17.72-15.1,37.65-27.11,7.36-4.43,14.72-9.32,25.37-15.79,10.29-6.25,20.48-9.81,20.71-26.28,.09-6.48-13.83-6.45-23.05-6.48-27.37-.11-80.1,29.25-126.78,48.91s-45.58,49.48-45.58,53.59,1.46,9.75,2.74,16.79c4.56,25.05-27.83,46.76-42.74,51.13-14.91,4.37-21.12-2.21-33.93,3.84-21.54,10.18-15.99,29.17-31.77,34.79-15.78,5.62-48.41,22.69-52.73,25.72-4.32,3.03-3.46,4.11,0,3.89s39.28-14.77,47.28-17.79c8-3.03,14.1-5.98,29.22-5.98,24.42,0,37.44,11.28,62.89,16.86,14.57,3.19,41.28-1.08,53.59-1.08,24.64,0,40.73-14.25,114.21-14.25,4.03,0,4.33-2.84,7.55-3.47,3.5-.69,14.42-4.28,15.76-5.62Z"/>
</svg>